<svg width="95" height="68" viewBox="0 0 95 68" fill="none" xmlns="http://www.w3.org/2000/svg">
  <g clip-path="url(#clip0_7_12)">
  <path d="M26.2143 34C26.2123 32.8159 26.4455 31.643 26.9005 30.5484C27.3555 29.4538 28.0234 28.4591 28.866 27.6211C29.7086 26.783 30.7093 26.1182 31.811 25.6646C32.9126 25.211 34.0935 24.9775 35.2862 24.9775H35.2348C36.4274 24.9775 37.6084 25.211 38.71 25.6646C39.8117 26.1182 40.8124 26.783 41.655 27.6211C42.4976 28.4591 43.1655 29.4538 43.6205 30.5484C44.0755 31.643 44.3087 32.8159 44.3066 34V34C44.3066 36.3889 43.3509 38.6799 41.6496 40.3691C39.9483 42.0582 37.6408 43.0072 35.2348 43.0072H35.2862C32.8802 43.0072 30.5727 42.0582 28.8714 40.3691C27.1701 38.6799 26.2143 36.3889 26.2143 34ZM68.6573 18.0297H85.5483C87.9543 18.0297 90.2617 17.0807 91.963 15.3915C93.6643 13.7024 94.6201 11.4113 94.6201 9.02249V9.02249C94.6221 7.83836 94.389 6.66546 93.934 5.57089C93.479 4.47632 92.8111 3.48157 91.9685 2.64355C91.1259 1.80553 90.1251 1.1407 89.0235 0.687092C87.9218 0.233482 86.7409 -1.70662e-06 85.5483 0L68.6573 0C67.4647 -1.70662e-06 66.2838 0.233482 65.1821 0.687092C64.0805 1.1407 63.0797 1.80553 62.2371 2.64355C61.3945 3.48157 60.7266 4.47632 60.2716 5.57089C59.8166 6.66546 59.5835 7.83836 59.5855 9.02249V9.02249C59.5855 11.4113 60.5413 13.7024 62.2426 15.3915C63.9439 17.0807 66.2513 18.0297 68.6573 18.0297V18.0297ZM10.6428 67.9847H43.4493C45.8553 67.9847 48.1627 67.0357 49.864 65.3466C51.5653 63.6574 52.5211 61.3664 52.5211 58.9775V58.9775C52.5231 57.7934 52.2899 56.6205 51.835 55.5259C51.38 54.4313 50.7121 53.4366 49.8695 52.5986C49.0269 51.7606 48.0261 51.0957 46.9245 50.6421C45.8228 50.1885 44.6419 49.955 43.4493 49.955H10.6428C9.45021 49.955 8.26929 50.1885 7.16764 50.6421C6.06599 51.0957 5.06523 51.7606 4.22264 52.5986C3.38004 53.4366 2.71213 54.4313 2.25714 55.5259C1.80214 56.6205 1.56899 57.7934 1.57101 58.9775V58.9775C1.57101 61.3664 2.52679 63.6574 4.22809 65.3466C5.92938 67.0357 8.23684 67.9847 10.6428 67.9847V67.9847ZM53.7276 43.0072H56.9363L64.432 24.9775H60.1451L55.5758 36.8036H55.5245L51.0322 24.9775H46.4629L53.7276 43.0072ZM70.3875 43.0072H74.392V24.9775H70.3875V43.0072ZM81.785 43.0072H94.5944V39.3523H85.7896V35.6822H93.6703V32.012H85.7896V28.6477H94.1324V24.9775H81.8107L81.785 43.0072ZM5.18537 18.045H9.1899V3.51724H14.3753V0H0V3.51724H5.18537V18.045ZM20.0227 18.045H24.0272V10.2459H31.7796V18.045H35.7842V0H31.7796V6.72864H24.0016V0H20.0227V18.045ZM41.2006 18.045H54.0356V14.3748H45.1794V10.7046H53.0601V7.03448H45.1794V3.67016H53.5222V0H41.2006V18.045ZM0.641753 43.0225H4.62062V29.1829H4.67196L9.29259 43.0225H12.3217L17.0963 29.1829H17.1476V43.0225H21.1522V24.9775H15.1197L10.9098 36.7526H10.8585L6.67423 24.9775H0.616083L0.641753 43.0225ZM58.189 68H64.6887C66.0054 68.0067 67.315 67.809 68.57 67.4138C69.7545 67.0465 70.8599 66.464 71.8301 65.696C72.7735 64.9336 73.539 63.9771 74.0737 62.8924C74.6662 61.6899 74.9686 60.367 74.9568 59.0285C74.9986 57.5795 74.7035 56.1404 74.0943 54.8231C73.5589 53.7127 72.7631 52.7461 71.7737 52.0042C70.7374 51.2666 69.5624 50.7431 68.3185 50.4648C66.9634 50.1286 65.5721 49.9575 64.1753 49.955H58.1634L58.189 68ZM62.1987 53.6252H64.5604C65.3703 53.6223 66.1768 53.7286 66.958 53.9412C67.6761 54.1352 68.3516 54.4601 68.95 54.8995C69.5185 55.3293 69.979 55.8842 70.2951 56.5205C70.6478 57.2373 70.8237 58.027 70.8085 58.8246C70.8305 59.7147 70.6552 60.5987 70.2951 61.4141C69.9881 62.0861 69.5169 62.6713 68.9243 63.1166C68.3109 63.5633 67.6121 63.8807 66.8707 64.0495C66.0289 64.242 65.1674 64.3361 64.3037 64.3298H62.173L62.1987 53.6252ZM80.7531 68H88.1974C89.0136 67.9982 89.8273 67.9128 90.6258 67.7451C91.3998 67.5919 92.1414 67.3074 92.818 66.904C93.4606 66.5234 94.0054 65.9999 94.4096 65.3748C94.8425 64.6553 95.0565 63.8268 95.0257 62.9892C95.0301 62.4331 94.9345 61.8807 94.7433 61.358C94.566 60.8644 94.2921 60.4105 93.9373 60.0225C93.58 59.6339 93.1536 59.3142 92.6794 59.0795C92.1678 58.82 91.6159 58.6477 91.0468 58.5697V58.5187C91.9285 58.267 92.7183 57.7678 93.3212 57.0813C93.9115 56.3645 94.2166 55.4577 94.1786 54.5325C94.2194 53.7021 94.0142 52.878 93.5881 52.1622C93.2058 51.5729 92.6748 51.0931 92.0479 50.7706C91.3774 50.4305 90.6534 50.2064 89.907 50.1079C89.1193 50.0005 88.3251 49.946 87.53 49.9448H80.7531V68ZM84.7576 53.3193H87.4787C87.7972 53.3211 88.115 53.3501 88.4285 53.406C88.7331 53.4587 89.0276 53.5585 89.3012 53.7016C89.5576 53.8373 89.7749 54.0355 89.9327 54.2777C90.1043 54.5562 90.1883 54.8792 90.174 55.2054C90.1831 55.5246 90.1088 55.8407 89.9584 56.1229C89.8195 56.3718 89.6201 56.5821 89.3782 56.7346C89.1316 56.892 88.8587 57.0042 88.5722 57.066C88.2723 57.1331 87.9658 57.1673 87.6583 57.1679H84.7114L84.7576 53.3193ZM84.7576 60.5322H87.7867C88.1389 60.534 88.4905 60.5595 88.8392 60.6087C89.1924 60.6565 89.5377 60.7508 89.866 60.8891C90.1821 61.0178 90.4609 61.2227 90.6772 61.4855C90.898 61.7789 91.0104 62.1389 90.9955 62.5049C91.0085 62.852 90.925 63.1959 90.7542 63.4989C90.5968 63.7644 90.3809 63.9909 90.1227 64.1616C89.8624 64.3337 89.5714 64.4548 89.2653 64.5184C88.9565 64.5845 88.6416 64.6187 88.3258 64.6204H84.7319L84.7576 60.5322Z" fill="url(#paint0_linear_7_12)"/>
  </g>
  <defs>
  <linearGradient id="paint0_linear_7_12" x1="0" y1="34" x2="95" y2="34" gradientUnits="userSpaceOnUse">
  <stop stop-color="#90CEA1"/>
  <stop offset="0.56" stop-color="#3CBEC9"/>
  <stop offset="1" stop-color="#00B3E5"/>
  </linearGradient>
  <clipPath id="clip0_7_12">
  <rect width="95" height="68" fill="white"/>
  </clipPath>
  </defs>
  </svg>
  